<?xml version="1.0" standalone="no"?>
<!DOCTYPE svg PUBLIC "-//W3C//DTD SVG 20010904//EN"
 "http://www.w3.org/TR/2001/REC-SVG-20010904/DTD/svg10.dtd">
<svg version="1.0" xmlns="http://www.w3.org/2000/svg"
 width="1300.000000pt" height="1210.000000pt" viewBox="0 0 1300.000000 1210.000000"
 preserveAspectRatio="xMidYMid meet">

<g transform="translate(0.000000,1210.000000) scale(0.100000,-0.100000)"
fill="#000000" stroke="none">
<path d="M6197 10868 c-19 -30 -202 -334 -283 -468 -34 -58 -69 -114 -77 -124
-13 -18 -23 -11 -178 120 -350 295 -401 336 -408 328 -4 -5 -49 -126 -100
-269 -51 -143 -107 -297 -124 -342 l-30 -83 -76 42 c-316 175 -577 316 -579
313 -2 -2 -26 -151 -53 -332 -27 -180 -51 -343 -54 -362 -3 -19 -7 -36 -9 -38
-2 -3 -137 38 -276 83 -165 54 -420 134 -429 134 -6 0 -8 -35 -5 -92 23 -447
32 -643 28 -647 -2 -3 -75 3 -162 13 -86 10 -240 26 -342 37 -102 10 -198 22
-213 25 -25 5 -28 3 -23 -12 23 -75 176 -708 171 -712 -4 -5 -391 -40 -633
-58 -51 -4 -95 -10 -97 -15 -3 -4 42 -105 99 -226 160 -339 208 -444 205 -448
-4 -3 -56 -19 -509 -150 -107 -31 -197 -58 -198 -60 -7 -6 -19 11 285 -395 61
-83 121 -163 132 -179 l21 -29 -167 -88 c-93 -48 -224 -116 -293 -152 -69 -36
-143 -74 -165 -85 l-39 -20 78 -74 c51 -47 85 -72 95 -68 17 5 198 53 492 131
l177 46 6 52 c7 64 55 274 91 397 160 559 445 1099 804 1526 34 40 61 75 61
77 0 12 340 347 430 423 146 124 210 172 380 288 446 303 985 525 1530 631
367 71 825 93 1186 55 205 -21 417 -56 556 -92 43 -11 89 -17 103 -13 18 4 27
2 31 -10 3 -9 12 -16 19 -16 7 0 88 -25 179 -55 518 -172 962 -417 1379 -763
112 -92 388 -362 465 -454 31 -38 62 -68 69 -68 7 0 13 -4 13 -10 0 -16 24
-12 73 15 26 13 53 22 61 19 7 -3 92 16 187 42 96 25 211 56 256 67 l82 21 36
110 c19 60 34 110 32 112 -1 2 -168 -4 -370 -13 -202 -9 -369 -14 -371 -12 -3
4 -1 30 45 438 24 214 27 267 17 279 -10 13 -10 14 0 8 7 -4 12 -2 12 4 0 6
-8 9 -17 6 -53 -16 -706 -176 -708 -174 -1 2 -14 149 -29 328 -32 383 -35 410
-45 410 -4 0 -64 -26 -132 -59 -68 -32 -160 -75 -204 -96 -44 -21 -136 -64
-204 -97 -69 -32 -128 -55 -132 -51 -4 5 -28 82 -53 173 -26 91 -62 217 -81
280 -19 63 -43 145 -52 183 -9 37 -21 67 -25 67 -5 0 -57 -36 -116 -80 -59
-43 -125 -92 -147 -108 -22 -16 -104 -77 -183 -136 -79 -58 -147 -106 -152
-106 -5 0 -50 80 -101 178 -51 97 -104 200 -119 227 -15 28 -49 94 -75 148
-27 53 -52 97 -56 97 -4 0 -87 -89 -185 -197 -99 -109 -208 -229 -243 -268
-35 -38 -69 -71 -75 -72 -6 -2 -27 18 -46 43 -19 25 -40 51 -45 58 -6 6 -90
111 -189 234 -98 122 -182 224 -187 227 -4 3 -15 -5 -22 -17z m1050 -179 c19
-12 32 -26 30 -33 -6 -19 -38 -19 -60 2 -12 11 -32 23 -44 27 -13 3 -23 11
-23 16 0 17 62 9 97 -12z m-2878 -478 c16 -10 6 -31 -14 -31 -17 0 -28 17 -20
30 8 12 16 12 34 1z m2703 -36 c0 -5 -5 -11 -11 -13 -6 -2 -11 4 -11 13 0 9 5
15 11 13 6 -2 11 -8 11 -13z m753 -215 c-3 -5 -13 -10 -21 -10 -8 0 -12 5 -9
10 3 6 13 10 21 10 8 0 12 -4 9 -10z m1255 -681 c0 -6 -4 -7 -10 -4 -5 3 -10
11 -10 16 0 6 5 7 10 4 6 -3 10 -11 10 -16z m1340 -349 c0 -5 -7 -10 -15 -10
-8 0 -15 5 -15 10 0 6 7 10 15 10 8 0 15 -4 15 -10z m-66 -77 c-34 -25 -51
-14 -19 14 20 18 30 22 33 13 3 -7 -3 -19 -14 -27z m-144 -4 c0 -5 -7 -9 -15
-9 -15 0 -20 12 -9 23 8 8 24 -1 24 -14z m-62 -77 c2 -7 -3 -12 -12 -12 -9 0
-16 7 -16 16 0 17 22 14 28 -4z m-348 -53 c0 -5 -7 -9 -15 -9 -8 0 -15 7 -15
15 0 9 6 12 15 9 8 -4 15 -10 15 -15z m310 -9 c0 -22 -1 -23 -24 -14 -18 7
-10 34 10 34 8 0 14 -9 14 -20z m-7352 -286 c-5 -27 -34 -40 -53 -24 -16 13
-16 15 1 27 26 19 56 17 52 -3z m-30 -362 c2 -7 -6 -12 -17 -12 -21 0 -27 11
-14 24 9 9 26 2 31 -12z m137 -131 c-3 -6 -14 -11 -23 -11 -15 1 -15 2 2 15
21 16 32 13 21 -4z m-28 -78 c-6 -35 -22 -62 -31 -52 -8 7 18 89 27 89 5 0 7
-16 4 -37z m-566 -856 c-1 -4 -1 -15 -1 -24 -1 -17 -2 -16 -15 1 -8 10 -12 23
-9 28 7 10 26 6 25 -5z"/>
<path d="M6390 9859 c-102 -4 -243 -14 -315 -23 -172 -22 -187 -25 -178 -39 5
-9 3 -9 -8 -1 -11 9 -45 5 -144 -16 -751 -158 -1433 -525 -1960 -1054 -172
-172 -262 -274 -371 -421 -64 -86 -67 -90 -147 -210 -50 -74 -137 -214 -137
-220 0 -1 -23 -44 -51 -95 -158 -291 -292 -649 -365 -973 -15 -65 -24 -120
-21 -123 3 -3 49 6 104 21 54 14 197 53 318 85 121 32 312 83 425 114 312 84
603 162 830 222 112 30 207 58 211 62 3 4 27 39 54 77 235 343 568 620 954
794 483 218 1046 267 1539 134 53 -14 112 -26 130 -25 21 1 32 -3 32 -12 0 -8
12 -17 28 -20 36 -9 159 -60 245 -102 l69 -33 117 30 c108 28 231 61 291 78
25 7 24 8 -18 36 -52 34 -51 39 24 151 74 111 86 141 69 175 -12 22 -54 59
-68 59 -2 0 -44 -61 -93 -135 -49 -74 -93 -135 -97 -135 -6 0 -72 41 -105 66
-2 1 99 156 224 344 153 231 231 340 240 336 34 -13 194 -128 217 -156 52 -61
49 -127 -9 -220 -49 -80 -103 -128 -154 -136 -34 -6 -38 -9 -30 -25 27 -50 6
-115 -84 -248 -31 -46 -54 -86 -52 -88 3 -3 42 5 88 17 46 12 103 26 128 32
25 6 51 15 58 21 7 6 25 11 40 12 25 2 163 37 417 106 61 17 151 41 200 54
255 69 361 98 370 103 6 4 15 7 20 7 6 0 29 4 53 9 l42 8 -32 40 c-48 61 -260
270 -368 363 -166 142 -274 221 -558 404 -62 40 -390 204 -497 249 -373 154
-710 241 -1100 282 -219 23 -334 27 -575 19z m-354 -95 c-15 -14 -31 -23 -34
-20 -9 9 30 46 47 46 11 -1 8 -8 -13 -26z m-346 -225 c0 -38 -19 -87 -37 -93
-13 -5 -14 -4 -4 8 7 9 15 43 18 76 6 60 23 66 23 9z m1992 -81 c-9 -9 -15 -9
-23 -1 -7 7 -9 20 -5 29 6 16 8 16 23 1 13 -13 15 -19 5 -29z m-1287 -7 c59
-34 95 -120 95 -227 0 -33 3 -43 13 -38 9 6 9 4 -1 -8 -10 -12 -10 -40 -2
-129 16 -183 13 -273 -10 -319 -63 -124 -276 -134 -345 -15 -14 23 -25 50 -25
59 0 9 -4 15 -8 12 -5 -3 -7 8 -4 23 2 16 -3 133 -13 260 -16 234 -16 248 11
311 37 87 195 126 289 71z m478 3 c26 -3 47 -11 47 -18 0 -6 1 -155 1 -331 l0
-320 43 130 c23 72 69 214 101 316 l59 185 55 -9 c31 -5 58 -11 59 -12 4 -3
-76 -255 -196 -622 -44 -135 -60 -172 -72 -168 -8 2 -52 9 -97 16 l-83 11 0
420 c0 395 1 419 18 414 9 -3 38 -8 65 -12z m-1299 -79 c6 -18 -2 -45 -15 -45
-5 0 -9 14 -9 30 0 32 14 40 24 15z m2157 -136 c84 -33 156 -62 158 -64 7 -8
-31 -105 -42 -105 -6 0 -53 16 -105 36 -53 21 -97 33 -102 28 -8 -9 -80 -185
-80 -197 0 -3 33 -18 73 -32 39 -15 76 -31 81 -36 8 -7 -23 -109 -34 -109 -3
0 -41 14 -84 30 -43 17 -80 29 -81 28 -5 -6 -85 -209 -85 -216 0 -4 17 -14 38
-21 41 -15 166 -63 169 -66 6 -4 -41 -105 -48 -105 -5 0 -71 25 -148 55 -77
30 -144 55 -148 55 -4 0 -14 4 -21 9 -14 9 -11 18 123 356 35 88 84 213 109
278 50 129 54 137 65 137 4 0 77 -27 162 -61z m-2347 -2 c9 -23 16 -47 16 -53
0 -10 -37 -28 -164 -78 -23 -10 -36 -21 -33 -28 2 -7 22 -55 43 -106 42 -104
34 -100 133 -56 29 13 59 24 65 24 7 0 22 -23 33 -50 l22 -51 -57 -24 c-31
-14 -69 -31 -84 -37 l-27 -13 44 -105 c51 -122 43 -119 171 -64 47 20 86 35
88 33 7 -8 46 -102 44 -105 -6 -5 -321 -134 -328 -134 -4 0 -13 12 -18 28 -6
15 -31 77 -57 137 -26 61 -66 157 -90 215 -24 58 -68 165 -99 239 -30 74 -54
136 -52 138 2 2 62 28 134 58 72 29 138 58 149 64 34 20 50 12 67 -32z m3206
-7 c0 -5 -4 -10 -10 -10 -5 0 -10 5 -10 10 0 6 5 10 10 10 6 0 10 -4 10 -10z
m-2930 -76 c0 -3 -5 -26 -12 -51 l-11 -46 -13 44 c-18 58 -18 59 11 59 14 0
25 -3 25 -6z m-240 -14 c0 -5 -4 -10 -10 -10 -5 0 -10 5 -10 10 0 6 5 10 10
10 6 0 10 -4 10 -10z m200 -150 c0 -5 -4 -10 -10 -10 -5 0 -10 5 -10 10 0 6 5
10 10 10 6 0 10 -4 10 -10z m-895 -68 c13 -21 73 -101 132 -179 142 -187 323
-431 323 -436 0 -8 -91 -68 -99 -65 -5 2 -77 95 -161 208 -83 113 -157 210
-162 215 -11 10 118 -240 202 -394 53 -96 53 -99 -17 -142 -40 -25 -39 -26
-177 108 -149 146 -272 260 -260 243 6 -8 78 -105 160 -215 83 -110 153 -205
157 -211 3 -6 -13 -25 -40 -44 -38 -28 -48 -31 -57 -19 -6 8 -71 95 -145 194
-74 99 -179 239 -233 311 -54 72 -98 135 -98 140 1 5 31 31 67 57 50 37 71 47
84 40 10 -4 78 -66 151 -138 74 -71 162 -157 197 -190 l64 -60 -59 112 c-32
61 -63 111 -69 110 -5 -1 -9 7 -8 17 1 11 -25 68 -58 128 -83 153 -83 145 -2
205 37 27 72 48 76 46 4 -3 19 -21 32 -41z m3875 18 c0 -5 -4 -10 -9 -10 -6 0
-13 5 -16 10 -3 6 1 10 9 10 9 0 16 -4 16 -10z m-2709 -123 c-1 -12 -15 -9
-19 4 -3 6 1 10 8 8 6 -3 11 -8 11 -12z m-856 -37 c3 -5 -1 -10 -9 -10 -9 0
-16 5 -16 10 0 6 4 10 9 10 6 0 13 -4 16 -10z m-755 -330 c0 -5 -4 -10 -10
-10 -5 0 -10 5 -10 10 0 6 5 10 10 10 6 0 10 -4 10 -10z m1063 -126 c10 -10
-12 -44 -28 -44 -18 0 -28 17 -21 35 5 15 37 20 49 9z m-1273 -131 c276 -156
555 -315 559 -319 4 -4 -17 -36 -52 -78 l-24 -29 -64 38 -64 37 -42 -48 c-62
-71 -63 -79 -9 -133 25 -26 46 -51 46 -56 0 -6 -17 -29 -38 -52 l-37 -42 -278
310 -279 310 36 47 c72 93 81 102 96 97 8 -4 76 -40 150 -82z m3780 -83 c0 -5
-4 -10 -10 -10 -5 0 -10 5 -10 10 0 6 5 10 10 10 6 0 10 -4 10 -10z m-3850
-254 c0 -21 -21 -31 -30 -15 -5 7 -6 17 -4 21 9 14 34 9 34 -6z m-277 -192
c32 -16 57 -32 57 -36 0 -5 -11 -31 -25 -58 l-25 -50 -51 26 c-63 32 -104 29
-127 -8 -12 -21 -14 -34 -6 -55 8 -24 43 -45 234 -140 124 -61 237 -112 252
-112 31 -1 68 33 68 62 0 37 -22 57 -103 96 l-82 39 -13 -24 c-7 -13 -15 -24
-18 -24 -2 0 -27 11 -54 25 l-50 25 40 80 c22 44 46 80 53 79 6 0 74 -33 151
-72 115 -60 144 -79 169 -115 39 -54 42 -116 7 -184 -44 -89 -110 -130 -193
-120 -39 4 -453 203 -519 249 -79 54 -95 141 -44 241 58 114 150 139 279 76z"/>
<path d="M6242 9344 c-26 -18 -28 -64 -12 -319 14 -225 17 -243 45 -261 32
-21 83 -10 97 21 15 33 1 258 -15 248 -9 -5 -9 -3 -1 8 7 9 8 44 3 104 -4 50
-8 107 -8 128 -1 26 -9 46 -26 62 -28 29 -51 31 -83 9z"/>
<path d="M4107 7949 l137 -150 18 23 c10 13 28 35 39 50 l20 27 -23 14 c-59
37 -320 187 -324 187 -3 0 57 -68 133 -151z"/>
<path d="M8209 8782 c-20 -31 -50 -78 -67 -104 l-31 -47 33 -21 c62 -38 95
-23 160 75 37 56 35 96 -8 129 -19 14 -38 26 -43 26 -4 0 -24 -26 -44 -58z"/>
<path d="M11315 8799 c-50 -15 -457 -124 -665 -179 -107 -28 -294 -78 -415
-111 -121 -33 -265 -71 -320 -85 -55 -15 -120 -32 -145 -39 -25 -8 -108 -30
-185 -50 -176 -47 -605 -161 -860 -230 -49 -14 -142 -38 -205 -55 -197 -52
-291 -78 -405 -109 -60 -16 -198 -53 -305 -81 -241 -64 -428 -114 -540 -145
-47 -12 -173 -46 -280 -75 -107 -28 -267 -71 -355 -95 -88 -24 -194 -53 -235
-63 -346 -91 -466 -125 -475 -133 -5 -5 -18 -9 -30 -9 -11 0 -268 -66 -571
-146 -484 -129 -551 -149 -547 -164 4 -15 -5 -20 -47 -29 -66 -14 -66 -14 -46
8 17 19 9 17 -294 -65 -102 -28 -354 -95 -575 -154 -277 -74 -722 -193 -840
-225 -99 -27 -281 -75 -820 -220 -49 -13 -139 -37 -200 -53 -60 -17 -198 -53
-305 -82 -107 -29 -242 -65 -300 -80 -58 -16 -142 -38 -187 -50 -64 -17 -83
-26 -88 -43 -6 -19 -8 -20 -12 -4 -2 9 -7 17 -11 17 -16 0 -122 -33 -122 -39
0 -6 27 -109 114 -434 31 -114 80 -298 110 -410 30 -111 96 -355 146 -542 82
-301 164 -609 220 -820 10 -38 35 -131 55 -205 42 -156 78 -293 106 -400 36
-138 38 -142 68 -135 49 11 469 122 641 170 47 13 132 36 190 51 60 16 119 39
138 53 27 20 37 23 52 13 14 -9 38 -6 112 14 51 14 284 76 518 139 234 63 511
137 615 165 105 28 249 67 320 86 72 20 153 41 180 49 28 7 172 46 320 85 149
40 293 78 320 85 28 8 246 66 485 130 239 64 527 141 640 172 113 30 237 63
275 73 39 10 131 35 205 55 116 32 362 97 615 165 39 10 131 35 205 55 74 20
176 47 225 60 50 13 182 48 295 79 373 100 664 178 735 196 39 10 120 32 180
48 277 75 576 155 640 172 39 10 138 37 220 59 83 22 245 66 360 96 116 31
257 69 315 85 58 15 182 48 275 73 582 155 595 159 577 174 -15 13 -11 14 33
9 39 -5 79 2 186 30 119 32 136 39 132 55 -5 17 -2 18 27 7 28 -9 54 -5 191
32 88 24 154 47 148 51 -8 5 -8 8 0 14 7 4 19 1 27 -6 8 -6 17 -9 20 -6 7 7
-14 76 -28 94 -5 7 -7 16 -4 21 3 5 -6 47 -20 93 -14 46 -29 102 -33 124 -5
22 -27 110 -51 195 -23 85 -48 178 -55 205 -44 174 -128 484 -137 507 -9 23
-14 26 -39 21 -18 -3 -29 -1 -29 6 0 6 13 11 29 11 28 0 29 1 21 33 -5 17 -16
61 -26 97 -9 36 -21 76 -27 90 -6 14 -9 29 -8 33 1 5 -10 50 -24 100 -30 110
-113 420 -225 837 -44 168 -92 345 -106 393 -13 48 -24 90 -24 92 0 7 -31 4
-65 -6z m-200 -389 c3 -11 10 -20 14 -20 5 0 11 -14 15 -32 3 -18 16 -43 29
-57 16 -18 17 -21 3 -11 -17 14 -18 13 -13 -5 4 -11 32 -114 62 -230 31 -115
81 -302 111 -415 30 -113 80 -297 110 -410 61 -231 64 -241 71 -222 6 15 29
16 38 2 11 -17 -5 -52 -21 -46 -16 6 -18 16 31 -174 26 -101 35 -124 48 -122
20 3 23 -14 5 -20 -21 -7 41 -237 70 -262 25 -23 28 -36 8 -36 -12 0 -11 -12
5 -72 11 -40 22 -80 26 -88 6 -15 10 -37 15 -74 3 -21 39 -11 -932 -270 -325
-87 -429 -115 -450 -123 -8 -3 -22 -7 -30 -8 -13 -1 -158 -40 -510 -135 -157
-42 -531 -143 -730 -195 -96 -26 -274 -74 -395 -106 -121 -33 -269 -73 -330
-89 -109 -29 -361 -96 -710 -190 -99 -26 -268 -71 -375 -100 -107 -28 -276
-74 -375 -100 -249 -67 -579 -155 -710 -190 -60 -16 -211 -57 -335 -90 -124
-33 -274 -74 -335 -90 -271 -72 -688 -184 -770 -207 -49 -14 -155 -42 -235
-63 -80 -20 -350 -92 -600 -160 -250 -67 -579 -155 -730 -195 -151 -41 -369
-99 -485 -130 -515 -138 -701 -188 -720 -192 -18 -4 -24 9 -54 119 -51 187
-66 241 -106 393 -21 77 -48 178 -60 225 -13 47 -48 177 -78 290 -30 113 -74
275 -97 360 -23 85 -50 187 -60 225 -10 39 -35 131 -55 205 -74 273 -125 468
-125 474 0 3 8 6 18 6 10 0 38 6 63 14 24 8 107 31 184 51 77 21 212 56 300
80 88 24 223 60 300 80 77 20 187 50 245 66 58 15 148 40 200 54 52 14 194 52
315 84 121 32 308 82 415 111 107 28 233 63 280 76 47 14 96 27 110 30 14 2
66 16 115 29 50 13 176 47 280 75 285 77 453 122 740 199 143 38 307 82 365
97 58 15 111 34 118 43 38 48 43 51 87 51 25 0 45 -4 45 -10 0 -5 -17 -10 -39
-10 -22 0 -44 -6 -51 -15 -7 -8 -9 -15 -5 -15 4 0 94 23 199 51 105 29 263 71
351 94 194 52 612 164 1195 320 239 65 491 132 560 150 111 30 447 120 825
222 72 19 162 43 200 53 78 20 359 96 710 190 127 34 246 66 265 71 20 4 119
31 220 58 102 28 237 64 300 81 63 17 205 55 315 84 110 30 263 71 340 91 77
20 147 39 155 42 8 4 18 5 23 5 4 -1 7 2 7 7 0 5 -11 9 -25 9 -32 0 -44 10
-25 22 26 17 58 11 65 -10z m-1154 -196 c12 -14 11 -16 -5 -13 -11 2 -21 10
-24 17 -5 17 13 15 29 -4z m-71 -34 c0 -5 -4 -10 -9 -10 -6 0 -13 5 -16 10 -3
6 1 10 9 10 9 0 16 -4 16 -10z m1570 -180 c0 -5 -7 -10 -15 -10 -8 0 -15 5
-15 10 0 6 7 10 15 10 8 0 15 -4 15 -10z m-2506 -33 c-3 -9 -12 -17 -20 -17
-11 0 -11 5 -2 25 12 27 33 20 22 -8z m2616 -12 c7 -9 10 -18 6 -22 -9 -10
-58 16 -51 27 9 15 31 12 45 -5z m-3052 -47 c16 -16 15 -38 -2 -38 -16 0 -46
26 -46 41 0 13 34 11 48 -3z m-848 -123 c7 -9 10 -18 6 -22 -8 -9 -56 14 -56
27 0 15 36 12 50 -5z m3739 -54 c7 -5 10 -14 7 -20 -10 -16 -43 -14 -49 3 -10
25 14 34 42 17z m101 -161 c0 -5 -4 -10 -10 -10 -5 0 -10 5 -10 10 0 6 5 10
10 10 6 0 10 -4 10 -10z m-75 -29 c6 -11 -33 -26 -43 -16 -4 3 0 10 8 15 19
12 27 12 35 1z m240 -51 c3 -6 -1 -13 -10 -16 -19 -8 -30 0 -20 15 8 14 22 14
30 1z m-125 -65 c0 -18 -28 -34 -51 -28 -24 7 -25 30 -1 36 34 9 52 7 52 -8z
m45 -75 c0 -17 -37 -25 -63 -15 -15 6 -15 8 3 21 24 18 60 14 60 -6z m-5705
-200 c12 -7 12 -12 3 -21 -9 -9 -16 -9 -28 1 -29 24 -9 42 25 20z m5914 -146
c12 -32 6 -37 -45 -32 -89 9 -91 48 -3 48 29 0 44 -5 48 -16z m-199 -124 c8
-13 -25 -13 -45 0 -12 8 -9 10 12 10 15 0 30 -4 33 -10z m144 -36 c-15 -18
-39 -18 -39 0 0 16 19 25 38 18 9 -3 10 -8 1 -18z m103 -16 c9 -7 19 -26 22
-42 l7 -29 -36 31 c-20 18 -41 32 -48 33 -7 0 -3 4 8 9 27 12 29 12 47 -2z
m-164 -20 c-3 -7 -11 -13 -18 -13 -7 0 -15 6 -17 13 -3 7 4 12 17 12 13 0 20
-5 18 -12z m107 -38 c3 -5 -3 -10 -14 -10 -12 0 -21 5 -21 10 0 6 6 10 14 10
8 0 18 -4 21 -10z m130 -120 c-3 -5 -18 -10 -33 -10 -21 0 -24 2 -12 10 20 13
53 13 45 0z m-7596 -29 c9 -6 10 -11 2 -15 -13 -8 -31 1 -31 15 0 11 11 11 29
0z m7438 -70 c3 -11 15 -21 27 -23 17 -3 14 -7 -19 -21 -21 -10 -46 -16 -55
-15 -16 3 -25 40 -16 64 8 22 57 18 63 -5z m201 -83 c-5 -15 -56 -29 -64 -17
-10 16 7 29 37 29 19 0 29 -4 27 -12z m-102 -53 c-10 -8 -23 -12 -28 -9 -14 9
2 24 25 24 21 -1 21 -1 3 -15z m-8648 -57 c-7 -19 -38 -22 -38 -4 0 10 9 16
21 16 12 0 19 -5 17 -12z m8764 -8 c22 -13 27 -20 15 -20 -9 0 -23 -11 -29
-25 -6 -14 -19 -25 -29 -25 -15 0 -18 8 -16 45 2 51 11 55 59 25z m-132 -20
c0 -5 -9 -10 -21 -10 -11 0 -17 5 -14 10 3 6 13 10 21 10 8 0 14 -4 14 -10z
m-82 -58 c2 -7 -1 -12 -6 -12 -14 0 -42 29 -42 42 0 13 42 -14 48 -30z m232 8
c0 -5 -7 -7 -15 -4 -8 4 -15 8 -15 10 0 2 7 4 15 4 8 0 15 -4 15 -10z m-9115
-10 c3 -5 -1 -10 -9 -10 -9 0 -16 5 -16 10 0 6 4 10 9 10 6 0 13 -4 16 -10z
m9052 -105 c9 -25 -2 -27 -28 -6 l-24 20 23 1 c12 0 25 -7 29 -15z m-90 -30
c20 -17 23 -24 12 -25 -8 0 -26 11 -39 25 -30 32 -10 33 27 0z m194 -42 c12
-15 12 -16 -4 -10 -10 4 -25 7 -33 7 -8 0 -14 5 -14 10 0 16 36 11 51 -7z
m-10533 -20 c-3 -19 -48 -32 -48 -14 0 10 28 30 43 31 5 0 7 -8 5 -17z m-121
-88 c-4 -8 -11 -15 -17 -15 -7 0 -7 6 0 21 13 23 26 19 17 -6z m10713 15 c0
-5 -4 -10 -10 -10 -5 0 -10 5 -10 10 0 6 5 10 10 10 6 0 10 -4 10 -10z m-393
-40 c46 -27 47 -28 35 -48 -7 -10 -19 -7 -55 14 -44 24 -56 42 -40 58 8 7 5 8
60 -24z m-10646 -13 c-8 -8 -11 -7 -11 4 0 20 13 34 18 19 3 -7 -1 -17 -7 -23z
m10265 -34 c9 -9 12 -19 7 -20 -15 -5 -63 15 -63 27 0 16 37 12 56 -7z m585 7
c5 0 9 -4 9 -10 0 -13 -57 -13 -64 -1 -7 11 14 21 32 15 8 -2 18 -4 23 -4z
m-10346 -9 c3 -5 1 -12 -5 -16 -5 -3 -10 1 -10 9 0 18 6 21 15 7z m9515 -41
c0 -14 -14 -12 -28 2 -19 19 -14 30 8 18 11 -6 20 -15 20 -20z m490 11 c0 -5
-7 -11 -15 -15 -9 -3 -15 0 -15 9 0 8 7 15 15 15 8 0 15 -4 15 -9z m247 3 c13
-4 20 -10 17 -15 -8 -13 -28 -11 -50 6 -21 16 -8 20 33 9z m-467 -60 c0 -14
-3 -14 -15 -4 -8 7 -15 14 -15 16 0 2 7 4 15 4 8 0 15 -7 15 -16z m-45 -24
c-3 -5 -10 -10 -16 -10 -5 0 -9 5 -9 10 0 6 7 10 16 10 8 0 12 -4 9 -10z
m-10245 -34 c0 -3 -4 -8 -10 -11 -5 -3 -10 -1 -10 4 0 6 5 11 10 11 6 0 10 -2
10 -4z m80 -49 c5 -39 4 -45 -7 -34 -8 7 -16 31 -20 52 -5 30 -3 37 8 33 8 -3
16 -24 19 -51z m10073 9 c20 -16 37 -34 36 -40 0 -17 -57 -58 -69 -51 -6 4 -8
15 -5 26 5 15 1 19 -20 19 -14 0 -35 5 -45 10 -18 10 -18 12 -2 40 27 47 42
46 105 -4z m-9913 24 c0 -5 -4 -10 -10 -10 -5 0 -10 5 -10 10 0 6 5 10 10 10
6 0 10 -4 10 -10z m10095 0 c3 -5 -3 -10 -14 -10 -12 0 -21 5 -21 10 0 6 6 10
14 10 8 0 18 -4 21 -10z m-10215 -94 c0 -8 -4 -17 -9 -21 -12 -7 -24 12 -16
25 9 15 25 12 25 -4z m120 -26 c0 -5 -5 -10 -11 -10 -5 0 -7 5 -4 10 3 6 8 10
11 10 2 0 4 -4 4 -10z m8920 -44 c0 -2 -8 -10 -17 -17 -16 -13 -17 -12 -4 4
13 16 21 21 21 13z m400 -46 c0 -5 -4 -10 -9 -10 -6 0 -13 5 -16 10 -3 6 1 10
9 10 9 0 16 -4 16 -10z m-409 -37 c13 -16 12 -17 -3 -4 -10 7 -18 15 -18 17 0
8 8 3 21 -13z m-991 -192 c0 -13 -29 -41 -41 -41 -10 0 -5 13 14 38 11 14 27
16 27 3z m-109 -139 c-12 -23 -40 -47 -46 -40 -14 13 20 50 53 57 1 1 -2 -7
-7 -17z m-561 -32 c0 -5 -7 -10 -15 -10 -8 0 -15 5 -15 10 0 6 7 10 15 10 8 0
15 -4 15 -10z m145 -180 c3 -5 -1 -10 -9 -10 -9 0 -16 5 -16 10 0 6 4 10 9 10
6 0 13 -4 16 -10z m-1900 -500 c3 -5 1 -10 -4 -10 -6 0 -11 5 -11 10 0 6 2 10
4 10 3 0 8 -4 11 -10z m-900 -110 c-12 -19 -52 -29 -82 -20 -27 8 -27 8 -3 10
14 0 39 7 55 14 33 14 41 13 30 -4z m-395 -259 c0 -6 -4 -13 -10 -16 -5 -3
-10 1 -10 9 0 9 5 16 10 16 6 0 10 -4 10 -9z m-1288 -343 c-8 -8 -17 -8 -34 0
-22 10 -21 11 12 11 26 1 31 -2 22 -11z m-1235 -74 c-3 -3 -12 -4 -19 -1 -8 3
-5 6 6 6 11 1 17 -2 13 -5z m-377 -149 c0 -8 -7 -15 -15 -15 -8 0 -15 7 -15
15 0 8 7 15 15 15 8 0 15 -7 15 -15z m-500 -129 c0 -12 -4 -27 -9 -34 -9 -14
-21 29 -21 72 1 21 1 21 15 2 8 -11 15 -29 15 -40z m650 34 c0 -5 -15 -10 -32
-10 -25 0 -29 3 -18 10 20 13 50 13 50 0z"/>
<path d="M10335 7936 c-33 -8 -148 -37 -255 -66 -107 -29 -205 -55 -217 -57
-13 -3 -23 -8 -23 -12 0 -6 35 -138 95 -361 20 -74 45 -166 55 -205 10 -38 43
-162 74 -275 30 -113 100 -376 156 -585 56 -209 104 -382 106 -384 6 -7 284
72 284 81 0 5 -9 43 -21 86 -11 42 -45 167 -74 277 -29 110 -63 234 -74 275
-12 41 -21 79 -21 85 0 13 129 45 181 45 49 0 98 -35 126 -90 13 -25 39 -103
58 -175 82 -304 76 -287 96 -269 18 16 19 16 19 -3 0 -12 -7 -23 -14 -26 -11
-5 -13 -13 -7 -34 12 -39 44 -93 56 -93 6 0 56 13 112 29 56 17 117 33 137 37
20 3 36 8 36 10 0 2 -13 28 -30 57 -17 31 -48 122 -74 218 -68 255 -85 309
-123 382 -43 82 -105 140 -170 157 -27 7 -50 15 -52 16 -2 2 13 22 32 45 76
88 89 218 42 400 -15 57 -31 109 -35 114 -3 6 -7 20 -8 31 -1 40 -59 149 -105
200 -29 32 -66 60 -99 74 -65 28 -180 35 -263 16z m-141 -202 c27 -26 18 -35
-19 -17 -19 9 -35 20 -35 25 0 14 38 9 54 -8z m262 -89 c13 -8 33 -34 45 -56
32 -64 89 -284 89 -346 0 -51 -3 -59 -38 -93 -36 -36 -90 -59 -176 -75 l-33
-7 -17 69 c-10 37 -28 106 -41 153 -59 217 -88 330 -84 333 2 2 40 13 84 25
86 23 133 22 171 -3z m324 -245 c0 -5 -4 -10 -10 -10 -5 0 -10 5 -10 10 0 6 5
10 10 10 6 0 10 -4 10 -10z m-405 -621 c9 -13 -12 -19 -45 -12 -29 5 -31 8
-16 18 17 13 52 10 61 -6z m60 -158 c7 -12 -12 -24 -25 -16 -11 7 -4 25 10 25
5 0 11 -4 15 -9z m433 -39 c2 -7 -6 -12 -17 -12 -21 0 -27 11 -14 24 9 9 26 2
31 -12z m90 -108 c-11 -11 -48 30 -48 54 0 26 1 26 26 -11 14 -21 24 -40 22
-43z m32 -239 c0 -17 -2 -18 -24 -9 -23 9 -20 24 4 24 11 0 20 -7 20 -15z"/>
<path d="M9535 7726 c-44 -13 -143 -40 -220 -60 -171 -45 -261 -70 -361 -98
-75 -21 -76 -22 -71 -52 4 -29 63 -252 192 -726 31 -113 58 -214 60 -225 7
-31 75 -284 95 -355 10 -36 42 -155 71 -265 29 -110 55 -204 59 -208 4 -5 43
1 86 13 134 37 284 78 404 110 180 48 197 53 178 58 -10 2 -18 8 -18 13 0 12
4 11 33 -2 17 -8 35 -8 65 0 40 11 40 12 31 44 -5 17 -21 74 -35 126 -13 52
-26 96 -27 97 -1 2 -112 -27 -246 -62 -134 -36 -247 -61 -251 -57 -10 11 -143
513 -138 518 2 2 89 27 193 56 105 28 191 52 193 54 5 5 -59 239 -67 248 -5 4
-93 -15 -197 -42 -104 -28 -192 -47 -196 -43 -4 4 -20 59 -37 122 -17 63 -46
172 -64 243 -19 70 -32 129 -28 131 3 2 69 20 146 40 77 21 160 44 185 51 25
7 61 17 80 21 19 3 45 10 57 15 l22 8 -33 123 c-38 144 -33 141 -161 104z m18
-153 c-7 -2 -19 -2 -25 0 -7 3 -2 5 12 5 14 0 19 -2 13 -5z m47 -708 c0 -8 -7
-15 -15 -15 -16 0 -20 12 -8 23 11 12 23 8 23 -8z m205 -835 c3 -5 -3 -10 -14
-10 -11 0 -23 5 -26 10 -3 6 3 10 14 10 11 0 23 -4 26 -10z m150 -50 c3 -6 -5
-10 -19 -10 -13 0 -31 -3 -40 -6 -11 -4 -16 -1 -16 10 0 12 9 16 34 16 19 0
38 -4 41 -10z m-187 -28 c2 -7 0 -12 -5 -10 -14 3 -97 -26 -111 -39 -7 -7 -18
-13 -23 -13 -21 0 -5 17 44 47 53 33 87 39 95 15z m202 -16 c0 -3 -4 -8 -10
-11 -5 -3 -10 -1 -10 4 0 6 5 11 10 11 6 0 10 -2 10 -4z m-216 -75 c3 -5 0
-11 -8 -14 -15 -6 -26 1 -26 15 0 11 27 10 34 -1z"/>
<path d="M8655 7489 c-165 -45 -175 -49 -175 -72 0 -34 54 -524 90 -822 11
-88 31 -263 45 -390 14 -126 28 -243 30 -260 l6 -30 -15 26 c-14 23 -130 287
-231 524 -24 55 -71 163 -105 240 -33 77 -107 246 -162 375 -56 129 -102 236
-103 238 -1 1 -63 -13 -138 -33 -75 -19 -138 -35 -141 -35 -15 0 0 -41 73
-207 43 -98 122 -277 176 -398 53 -121 123 -278 155 -350 55 -122 169 -381
247 -560 20 -44 47 -105 60 -135 14 -30 29 -65 34 -77 9 -25 -1 -27 259 45
l175 49 -3 64 c-1 35 -16 186 -32 334 -16 149 -41 376 -55 505 -13 129 -40
379 -60 555 -19 176 -37 346 -41 378 -3 31 -9 57 -12 56 -4 0 -38 -9 -77 -20z
m-68 -61 c-3 -8 -6 -5 -6 6 -1 11 2 17 5 13 3 -3 4 -12 1 -19z m-542 -408 c-3
-5 -10 -10 -16 -10 -5 0 -9 5 -9 10 0 6 7 10 16 10 8 0 12 -4 9 -10z m707
-902 c-9 -9 -15 -9 -24 0 -9 9 -7 12 12 12 19 0 21 -3 12 -12z m-114 -220 c-6
-18 -28 -21 -28 -4 0 9 7 16 16 16 9 0 14 -5 12 -12z"/>
<path d="M7245 7134 c-202 -53 -303 -123 -363 -252 -24 -51 -27 -69 -27 -167
0 -107 3 -118 94 -455 51 -190 115 -426 141 -525 27 -99 57 -200 67 -225 28
-70 66 -129 86 -136 10 -3 22 -16 27 -29 10 -27 95 -79 155 -96 62 -18 176
-13 262 11 214 59 329 187 340 380 5 85 -5 129 -110 520 -36 135 -90 337 -121
450 -77 291 -100 343 -187 427 -69 66 -146 97 -254 99 -49 2 -99 0 -110 -2z
m-135 -139 c0 -8 -9 -15 -20 -15 -11 0 -20 7 -20 15 0 8 9 15 20 15 11 0 20
-7 20 -15z m269 -153 c42 -31 61 -65 87 -157 14 -50 27 -98 29 -108 6 -26 97
-364 167 -622 69 -252 78 -316 54 -364 -31 -59 -127 -95 -191 -71 -69 26 -82
55 -163 360 -46 172 -95 353 -152 565 -58 211 -69 288 -50 335 32 76 153 111
219 62z m428 -588 c-9 -9 -28 6 -21 18 4 6 10 6 17 -1 6 -6 8 -13 4 -17z m-87
-54 c0 -5 -4 -10 -10 -10 -5 0 -10 5 -10 10 0 6 5 10 10 10 6 0 10 -4 10 -10z
m-520 -45 c0 -11 -63 -36 -83 -33 -20 3 -20 5 8 20 28 16 75 24 75 13z m70
-253 c0 -13 -12 -22 -22 -16 -10 6 -1 24 13 24 5 0 9 -4 9 -8z m488 -89 c2 -8
-5 -13 -17 -13 -12 0 -21 6 -21 16 0 18 31 15 38 -3z m120 -265 c-3 -7 -15
-13 -28 -13 -13 0 -25 6 -27 13 -3 8 6 12 27 12 21 0 30 -4 28 -12z"/>
<path d="M6120 6810 c-136 -37 -310 -84 -455 -121 -187 -49 -255 -68 -255 -74
0 -4 23 -89 126 -475 31 -113 64 -236 74 -275 10 -38 35 -131 55 -205 43 -158
134 -498 175 -655 48 -180 55 -200 71 -199 8 1 75 19 149 39 136 37 190 51
463 124 82 22 151 41 153 44 3 3 -10 62 -28 132 -30 113 -35 126 -53 122 -11
-2 -123 -32 -249 -66 -126 -34 -230 -60 -231 -59 -1 2 -28 100 -59 218 -32
118 -64 236 -71 261 l-13 47 71 20 c40 11 124 35 187 52 63 17 120 32 127 35
9 3 9 15 -2 52 -7 26 -23 85 -35 130 l-22 82 -46 -15 c-48 -14 -208 -57 -298
-78 l-51 -13 -33 121 c-17 67 -42 157 -55 201 -13 44 -26 95 -30 113 -7 34
-22 42 -31 17 -5 -12 -10 -13 -20 -4 -17 14 -9 29 17 29 10 0 19 6 19 14 0 8
36 22 103 40 117 30 269 72 342 93 l51 14 -35 130 c-19 71 -37 129 -40 128 -3
0 -35 -9 -71 -19z m-320 -625 c0 -8 -4 -15 -10 -15 -5 0 -10 7 -10 15 0 8 5
15 10 15 6 0 10 -7 10 -15z m-63 -186 l28 -11 -30 -14 c-41 -18 -55 -17 -55 4
0 34 13 38 57 21z m478 -160 c0 -8 -12 -15 -27 -17 -32 -4 -36 5 -10 24 20 16
37 13 37 -7z m-455 -20 c0 -5 -7 -9 -15 -9 -15 0 -20 12 -9 23 8 8 24 -1 24
-14z m-32 -72 c2 -10 -3 -17 -12 -17 -18 0 -29 16 -21 31 9 14 29 6 33 -14z
m317 -27 c3 -5 -1 -10 -9 -10 -8 0 -18 5 -21 10 -3 6 1 10 9 10 8 0 18 -4 21
-10z m-165 -50 c0 -5 -7 -10 -15 -10 -8 0 -15 5 -15 10 0 6 7 10 15 10 8 0 15
-4 15 -10z m210 -480 c0 -5 -7 -10 -15 -10 -8 0 -15 5 -15 10 0 6 7 10 15 10
8 0 15 -4 15 -10z m-118 -82 c-15 -15 -26 -4 -18 18 5 13 9 15 18 6 9 -9 9
-15 0 -24z m88 -8 c0 -12 -28 -25 -36 -17 -9 9 6 27 22 27 8 0 14 -5 14 -10z
m13 -158 c26 -11 47 -26 47 -31 0 -14 4 -14 -58 9 -29 11 -61 20 -71 20 -10 0
-24 7 -31 15 -8 10 -21 13 -38 8 l-26 -6 24 30 25 30 40 -27 c22 -15 61 -37
88 -48z m92 -2 c-3 -5 -10 -10 -16 -10 -5 0 -9 5 -9 10 0 6 7 10 16 10 8 0 12
-4 9 -10z"/>
<path d="M4990 6508 c-102 -28 -187 -52 -189 -54 -3 -3 21 -233 69 -659 71
-625 75 -665 62 -645 -6 8 -42 87 -82 175 -39 88 -85 189 -101 225 -17 36
-103 227 -193 425 -90 198 -170 361 -177 363 -14 2 -378 -94 -387 -102 -2 -3
19 -92 47 -198 29 -106 79 -292 111 -413 32 -121 75 -281 95 -355 20 -74 61
-227 91 -340 90 -334 82 -312 103 -301 13 7 24 6 37 -4 18 -13 17 -14 -11 -26
-17 -7 -31 -14 -33 -15 -3 -2 38 -157 43 -163 7 -7 105 31 105 40 0 6 5 7 11
3 18 -11 129 17 129 33 0 8 -18 80 -39 161 -158 590 -264 984 -276 1025 -8 26
-12 47 -9 47 4 0 24 -42 92 -195 22 -49 56 -124 75 -165 19 -41 110 -239 202
-440 91 -201 170 -369 175 -374 6 -6 15 -4 24 3 8 7 19 10 24 7 10 -6 203 42
216 55 5 4 4 53 -3 116 -7 59 -19 169 -26 243 -8 74 -20 174 -26 222 -11 78
-13 85 -29 76 -19 -12 -50 -5 -50 12 0 6 14 16 31 22 l32 11 -7 76 c-4 42 -18
177 -32 300 -14 123 -23 225 -22 227 4 3 56 -190 233 -854 28 -107 57 -197 65
-202 7 -4 9 -13 5 -19 -3 -7 3 -49 15 -95 l22 -84 112 30 c61 17 121 32 134
35 12 3 22 12 22 21 0 14 -20 91 -101 387 -53 195 -89 330 -161 600 -16 61
-42 160 -59 220 -42 156 -63 233 -99 370 -56 211 -60 225 -73 224 -7 0 -95
-23 -197 -51z m290 -333 c0 -10 -10 -15 -31 -15 -27 0 -30 2 -19 15 7 8 21 15
31 15 11 0 19 -7 19 -15z m-306 -340 c-6 -16 -24 -21 -24 -7 0 11 11 22 21 22
5 0 6 -7 3 -15z m115 -859 c33 -18 13 -27 -48 -19 -42 5 -49 8 -40 19 14 18
57 17 88 0z m539 -134 c2 -7 -3 -12 -12 -12 -9 0 -16 7 -16 16 0 17 22 14 28
-4z m-988 -98 c0 -9 -5 -14 -12 -12 -18 6 -21 28 -4 28 9 0 16 -7 16 -16z
m-23 -96 c-3 -8 -6 -5 -6 6 -1 11 2 17 5 13 3 -3 4 -12 1 -19z m543 -9 c0 -5
-11 -9 -25 -9 -26 0 -34 15 -12 23 16 5 37 -3 37 -14z m-582 -31 c12 -12 17
-48 7 -48 -3 0 -14 9 -25 20 -11 11 -28 20 -37 20 -15 0 -16 2 -3 10 20 13 44
12 58 -2z m22 -93 c19 -22 2 -37 -20 -17 -11 9 -20 20 -20 24 0 13 27 9 40 -7z"/>
<path d="M3485 6104 c-27 -8 -61 -17 -74 -20 -124 -26 -271 -73 -271 -87 0 -6
11 -119 25 -252 23 -224 42 -404 80 -785 9 -85 32 -306 51 -490 18 -184 34
-338 34 -342 0 -11 18 -10 63 3 31 8 36 13 27 24 -8 10 -8 15 1 21 7 4 18 -1
25 -11 13 -17 16 -17 76 0 35 9 66 19 69 21 3 1 -3 72 -12 156 -10 84 -18 160
-18 169 -1 12 24 23 97 43 137 38 127 33 111 54 -13 16 -13 16 7 0 18 -16 24
-16 68 -3 63 19 73 19 79 -2 9 -31 118 -278 127 -286 6 -7 277 58 289 69 2 2
-7 25 -19 51 -12 26 -61 134 -107 238 -47 105 -124 278 -173 385 -88 195 -136
302 -358 797 -79 179 -122 262 -132 262 -8 0 -37 -7 -65 -15z m75 -679 c67
-154 146 -336 176 -403 30 -68 56 -133 57 -144 2 -19 -12 -25 -127 -55 -94
-25 -131 -31 -136 -23 -4 6 -10 50 -14 97 -3 46 -17 178 -31 291 -49 417 -61
532 -51 521 2 -2 58 -130 126 -284z m-10 -1199 c0 -2 -7 -7 -16 -10 -8 -3 -12
-2 -9 4 6 10 25 14 25 6z"/>
<path d="M2325 5815 c-145 -39 -236 -94 -292 -179 -71 -105 -81 -229 -34 -416
16 -63 57 -218 91 -345 57 -214 74 -278 145 -540 39 -143 82 -231 146 -296 76
-77 132 -101 245 -107 203 -10 394 86 470 235 27 55 29 65 29 183 0 106 -4
139 -26 215 -15 50 -44 153 -64 230 -60 227 -82 300 -91 299 -30 -5 -380 -99
-386 -104 -8 -6 49 -239 62 -253 3 -4 28 0 56 8 27 8 54 15 61 15 20 0 113
-343 113 -417 0 -100 -139 -169 -232 -115 -49 28 -63 64 -153 407 -13 50 -40
151 -60 225 -120 442 -135 503 -135 561 0 44 4 55 33 84 55 55 149 69 205 29
12 -8 31 -32 41 -53 18 -35 56 -159 68 -224 3 -16 11 -31 17 -33 11 -4 253 60
263 70 2 2 -10 55 -27 118 -61 217 -129 322 -244 380 -57 29 -60 29 -41 7 17
-20 15 -19 -13 4 -31 25 -41 27 -115 26 -45 0 -104 -6 -132 -14z m501 -297
l17 -33 -22 19 c-11 11 -21 25 -21 33 0 21 8 15 26 -19z m-24 -210 c-5 -5 -20
-8 -33 -6 -24 3 -23 4 6 20 30 16 48 7 27 -14z m-141 -1125 c0 -5 2 -16 4 -25
2 -10 -3 -18 -10 -18 -18 0 -28 17 -21 35 6 16 25 21 27 8z m-36 -34 c10 -15
-1 -23 -20 -15 -9 3 -13 10 -10 16 8 13 22 13 30 -1z m-18 -85 c3 -8 1 -25 -4
-37 l-10 -22 -12 23 c-13 25 -9 52 9 52 6 0 13 -7 17 -16z m86 -12 c9 -14 -5
-62 -18 -62 -14 0 -29 45 -20 60 7 12 32 13 38 2z"/>
<path d="M6270 8031 c-378 -54 -703 -189 -1015 -424 -78 -59 -351 -324 -343
-333 3 -2 18 0 34 5 16 6 117 33 224 61 176 47 358 96 615 165 166 45 349 94
540 145 105 28 282 75 395 105 113 31 248 67 300 80 129 35 242 65 260 71 37
13 -238 93 -405 119 -162 26 -444 28 -605 6z m-985 -441 c-3 -5 -10 -10 -16
-10 -5 0 -9 5 -9 10 0 6 7 10 16 10 8 0 12 -4 9 -10z"/>
<path d="M11285 5430 c-16 -4 -91 -24 -165 -45 -74 -20 -166 -45 -205 -55
-150 -39 -270 -72 -271 -73 0 -1 -13 -63 -28 -137 -15 -74 -45 -199 -67 -277
-21 -79 -39 -145 -39 -148 0 -3 8 -5 18 -5 13 0 11 -5 -10 -23 -30 -24 -76
-139 -58 -145 15 -5 12 -20 -5 -24 -9 -2 -32 -43 -54 -98 -212 -528 -511 -979
-922 -1394 -104 -104 -186 -193 -183 -198 3 -4 -1 -6 -8 -3 -7 3 -50 -26 -95
-64 -228 -191 -506 -373 -773 -506 -52 -26 -104 -56 -115 -66 -11 -10 -38 -22
-60 -28 -22 -5 -104 -34 -183 -65 -667 -260 -1362 -344 -2072 -251 -163 22
-394 69 -540 111 -69 20 -138 39 -155 43 -36 9 -289 105 -362 137 -61 27 -70
15 -29 -39 13 -18 24 -45 24 -62 0 -16 1 -39 3 -50 8 -42 -123 -13 -138 31 -2
5 14 9 34 9 35 0 38 3 41 30 2 17 -6 50 -20 78 -22 46 -29 51 -139 107 -64 32
-158 82 -210 111 -110 61 -373 232 -383 248 -4 6 -14 11 -21 11 -8 0 -32 16
-52 35 -21 19 -94 80 -163 137 -135 111 -404 375 -485 476 -37 47 -55 62 -70
59 -20 -5 -85 -22 -365 -97 -85 -24 -183 -49 -217 -57 l-62 -15 -36 -110 c-20
-61 -34 -112 -32 -114 2 -2 133 3 293 11 159 8 324 15 367 15 l77 0 0 -37 c0
-21 -9 -117 -20 -213 -37 -320 -48 -435 -42 -442 4 -3 16 -8 27 -11 15 -4 13
-5 -7 -6 -18 -1 -28 -7 -28 -17 0 -10 6 -13 18 -10 19 6 701 176 706 176 2 0
6 -42 9 -92 8 -112 46 -556 53 -614 l5 -41 110 53 c60 30 111 54 113 54 2 0
66 30 142 66 232 111 307 144 312 140 2 -3 28 -87 57 -188 124 -428 147 -503
154 -510 3 -4 28 8 54 26 27 20 43 37 37 41 -16 10 0 27 21 22 19 -5 56 18
204 129 201 151 275 204 283 204 8 0 243 -439 279 -521 9 -20 18 -27 30 -22
13 5 15 2 10 -16 -5 -22 20 -91 33 -91 4 0 38 35 76 77 69 77 226 249 359 395
l70 77 230 -289 c127 -159 233 -290 237 -290 3 0 91 142 195 315 103 173 191
315 196 315 6 0 465 -382 545 -454 28 -25 32 -20 63 74 12 36 24 71 27 78 2 7
-1 12 -8 10 -7 -2 -14 2 -17 9 -2 6 6 13 18 15 18 3 31 30 86 183 35 99 75
210 89 248 l26 67 51 -29 c147 -82 210 -112 223 -107 8 3 14 -1 14 -8 0 -8 82
-60 183 -115 l182 -101 7 28 c3 15 12 63 18 107 33 237 89 597 93 601 2 2 58
-13 123 -34 267 -87 584 -185 588 -181 2 2 -2 112 -10 244 -7 132 -16 297 -19
368 l-7 127 29 0 c16 0 66 -5 112 -10 64 -8 86 -8 98 1 12 10 16 10 23 -1 5
-9 73 -20 212 -36 111 -12 218 -25 236 -28 25 -4 32 -1 32 11 0 9 -38 169 -85
355 -47 187 -85 344 -85 348 0 5 15 12 33 15 32 5 626 55 662 55 49 1 47 12
-19 151 -143 299 -246 521 -246 528 0 5 8 11 18 14 9 2 121 35 247 72 127 37
277 80 335 97 57 16 106 31 109 33 4 4 -17 34 -117 165 l-53 70 -25 -28 -24
-27 2 61 c2 59 1 63 -41 112 -33 41 -49 52 -72 52 -32 0 -40 23 -13 38 14 8
13 12 -8 38 -13 16 -38 50 -56 76 l-33 47 33 17 c18 9 65 34 103 54 39 20 173
90 299 156 l229 119 -79 72 c-43 40 -81 73 -84 72 -3 -1 -18 -5 -35 -9z m40
-40 c3 -6 3 -15 -1 -21 -4 -8 -13 -4 -25 12 -10 13 -19 28 -19 32 0 9 36 -9
45 -23z m-65 -10 c0 -5 -4 -10 -10 -10 -5 0 -10 5 -10 10 0 6 5 10 10 10 6 0
10 -4 10 -10z m-330 -340 c0 -5 -4 -10 -10 -10 -5 0 -10 5 -10 10 0 6 5 10 10
10 6 0 10 -4 10 -10z m221 -565 c-1 -15 -24 -12 -29 3 -3 9 2 13 12 10 10 -1
17 -7 17 -13z m-177 -94 c9 -15 -23 -36 -36 -23 -5 5 -7 15 -4 21 9 13 33 14
40 2z m-594 -519 l0 -27 -26 27 c-30 29 -25 55 7 38 11 -7 19 -21 19 -38z m42
-57 c6 -13 23 -29 37 -34 26 -9 26 -9 -6 -10 -24 -1 -35 5 -44 22 -7 12 -19
27 -28 34 -14 11 -13 12 7 13 14 0 26 -9 34 -25z m-24 -173 c3 -34 -11 -43
-26 -16 -12 21 -3 56 12 51 6 -2 12 -18 14 -35z m-738 -662 c0 -5 -7 -10 -15
-10 -8 0 -15 5 -15 10 0 6 7 10 15 10 8 0 15 -4 15 -10z m460 -100 c0 -5 -7
-10 -15 -10 -8 0 -15 5 -15 10 0 6 7 10 15 10 8 0 15 -4 15 -10z m-6515 -39
c3 -5 1 -12 -4 -15 -12 -8 -41 3 -41 15 0 12 37 12 45 0z m6160 -1 c4 -6 -9
-10 -32 -9 -38 1 -38 1 -8 9 17 4 31 8 32 9 1 0 5 -3 8 -9z m-84 -20 c26 -15
24 -30 -5 -30 -27 0 -41 14 -31 30 8 13 12 12 36 0z m-568 -189 c3 -13 20 -24
47 -31 54 -15 47 -22 -14 -14 -46 7 -75 32 -61 54 10 16 22 12 28 -9z m359 4
c0 -5 -5 -11 -11 -13 -6 -2 -11 4 -11 13 0 9 5 15 11 13 6 -2 11 -8 11 -13z
m-69 -82 c-13 -2 -33 -2 -45 0 -13 2 -3 4 22 4 25 0 35 -2 23 -4z m-389 -153
c15 -15 -23 -12 -59 6 l-30 14 39 -5 c22 -2 44 -9 50 -15z m-4870 -48 c2 -4 1
-14 -4 -22 -7 -11 -12 -12 -21 -3 -6 6 -8 16 -5 22 8 13 23 14 30 3z m5383
-13 c-14 -8 -22 -8 -30 0 -8 8 -3 11 19 11 25 -1 27 -2 11 -11z m-132 -19 c-3
-5 -15 -10 -26 -10 -10 0 -19 5 -19 10 0 6 12 10 26 10 14 0 23 -4 19 -10z
m-5215 -76 c0 -8 -4 -12 -10 -9 -5 3 -10 10 -10 16 0 5 5 9 10 9 6 0 10 -7 10
-16z m4462 -86 c-6 -6 -16 -7 -22 -3 -9 6 -9 9 1 16 17 10 34 0 21 -13z m-72
-22 c-13 -13 -35 7 -25 24 5 8 11 8 21 -1 10 -8 12 -15 4 -23z m70 -24 c26
-21 20 -42 -11 -42 -11 0 -23 10 -28 23 -15 40 3 48 39 19z m-3620 -52 c0 -5
-4 -10 -10 -10 -5 0 -10 5 -10 10 0 6 5 10 10 10 6 0 10 -4 10 -10z m3290 0
c0 -5 -4 -10 -10 -10 -5 0 -10 5 -10 10 0 6 5 10 10 10 6 0 10 -4 10 -10z
m-3358 -147 c10 -9 18 -20 18 -25 0 -13 -37 9 -44 27 -7 20 3 19 26 -2z m73
-33 c-3 -5 -13 -10 -21 -10 -8 0 -12 5 -9 10 3 6 13 10 21 10 8 0 12 -4 9 -10z
m3355 -9 c15 -28 12 -61 -4 -61 -8 0 -27 5 -43 11 -28 12 -28 12 -5 18 31 8
28 27 -4 24 -21 -2 -24 0 -14 13 18 20 57 17 70 -5z m-3515 -50 c3 -5 1 -12
-5 -16 -5 -3 -10 -30 -10 -58 l-1 -52 -20 42 c-19 39 -20 43 -4 67 18 27 30
32 40 17z m3535 -52 c0 -6 -4 -7 -10 -4 -5 3 -10 11 -10 16 0 6 5 7 10 4 6 -3
10 -11 10 -16z m-3361 -15 c2 -2 -4 -4 -15 -4 -10 0 -29 -3 -41 -6 -17 -5 -23
-2 -23 10 0 14 6 16 38 10 20 -4 39 -8 41 -10z m231 -223 c0 -11 -31 -24 -39
-16 -3 3 1 10 9 15 19 12 30 12 30 1z m1486 -158 c-7 -7 -26 7 -26 19 0 6 6 6
15 -2 9 -7 13 -15 11 -17z"/>
<path d="M10350 5179 c-19 -5 -111 -30 -205 -56 -93 -25 -192 -51 -220 -58
-27 -7 -153 -40 -280 -74 -126 -34 -261 -71 -300 -81 -38 -10 -140 -37 -225
-60 -85 -23 -254 -68 -375 -101 -151 -40 -224 -64 -233 -76 -93 -126 -140
-197 -136 -204 2 -4 -4 -13 -15 -19 -11 -5 -44 -36 -73 -68 -366 -400 -825
-654 -1342 -743 -169 -29 -349 -42 -477 -35 -101 6 -118 4 -123 -9 -3 -9 -10
-13 -16 -10 -6 4 -8 10 -5 15 7 11 -2 13 -150 35 -216 32 -430 100 -650 206
l-60 29 -70 -19 c-38 -10 -142 -37 -230 -60 -88 -23 -196 -53 -240 -66 -44
-13 -107 -30 -140 -39 -33 -8 -163 -42 -290 -76 -126 -34 -261 -70 -300 -80
-38 -10 -182 -48 -320 -85 -137 -37 -260 -70 -273 -73 -12 -2 -22 -7 -22 -11
1 -3 21 -28 45 -56 35 -39 45 -46 45 -30 0 18 2 18 20 -5 11 -14 15 -27 9 -31
-12 -7 181 -195 310 -302 64 -54 98 -76 110 -72 10 3 26 3 35 -1 18 -7 22 -30
5 -36 -24 -8 232 -183 451 -309 435 -249 947 -420 1450 -484 751 -95 1531 36
2220 373 219 107 507 285 647 399 50 41 69 100 38 118 -43 24 -71 65 -45 65 6
0 10 -6 10 -14 0 -25 41 -31 59 -8 9 11 34 25 56 31 58 16 65 13 23 -10 -38
-20 -56 -54 -44 -85 5 -12 21 -3 75 42 l70 57 -19 28 c-11 15 -20 32 -20 37 0
16 28 22 52 12 16 -6 18 -9 7 -9 -9 -1 -22 -7 -28 -15 -10 -12 -8 -15 11 -18
27 -4 103 62 250 220 164 175 379 453 357 460 -5 2 -9 8 -9 14 0 6 7 8 15 5
17 -7 30 10 136 185 201 330 373 755 459 1133 11 50 22 100 25 113 6 24 0 26
-55 11z m-1224 -495 c85 -44 131 -87 146 -136 10 -33 14 -37 32 -31 59 22 127
1 266 -82 30 -18 67 -35 82 -39 l27 -6 -21 -38 c-49 -87 -44 -83 -83 -66 -32
13 -38 13 -51 -1 -18 -18 -30 -19 -40 -3 -4 6 1 17 10 24 9 6 13 15 8 18 -60
37 -145 76 -165 76 -26 0 -77 -49 -77 -75 0 -7 63 -48 140 -91 77 -44 140 -82
140 -86 0 -4 -14 -30 -31 -58 l-31 -50 -51 28 c-29 16 -122 69 -207 117 -85
48 -222 125 -305 172 -83 46 -149 89 -147 96 10 37 111 197 144 230 35 33 44
37 92 37 41 0 68 -8 122 -36z m232 24 c-2 -6 -14 -15 -26 -19 -20 -8 -21 -6
-12 11 11 21 44 28 38 8z m633 -208 c32 -18 21 -30 -25 -30 -32 0 -52 -7 -73
-24 -28 -23 -93 -40 -93 -24 0 4 9 8 21 8 11 0 32 13 47 29 41 45 87 60 123
41z m-1283 -232 c23 -18 41 -35 41 -38 1 -3 -30 -41 -69 -85 -38 -44 -68 -83
-67 -87 1 -3 38 -38 82 -77 l80 -71 61 67 61 67 43 -41 44 -41 -57 -63 c-32
-34 -56 -66 -55 -70 5 -10 169 -149 177 -149 4 0 38 36 75 80 l68 80 39 -31
c21 -17 41 -35 45 -40 3 -5 -39 -60 -93 -122 -149 -170 -129 -154 -155 -130
-74 65 -288 251 -378 328 -58 49 -118 102 -135 116 -16 15 -43 38 -60 52 l-29
24 114 131 c63 72 118 131 121 132 4 0 25 -15 47 -32z m732 -8 c0 -5 -7 -10
-15 -10 -8 0 -15 5 -15 10 0 6 7 10 15 10 8 0 15 -4 15 -10z m105 -50 c3 -5 1
-10 -4 -10 -6 0 -11 5 -11 10 0 6 2 10 4 10 3 0 8 -4 11 -10z m-740 -11 c12
-19 -5 -23 -22 -6 -16 16 -16 17 -1 17 9 0 20 -5 23 -11z m1130 -109 c3 -6 -1
-13 -10 -16 -19 -8 -30 0 -20 15 8 14 22 14 30 1z m-674 -105 c-22 -23 -42
-40 -45 -37 -15 15 -2 44 37 81 37 36 42 38 45 20 2 -13 -11 -36 -37 -64z
m-878 -160 c31 -58 57 -108 57 -111 0 -3 8 -18 18 -32 10 -15 44 -74 74 -132
62 -116 103 -193 155 -288 19 -35 33 -65 31 -66 -1 -2 -36 -29 -77 -60 l-74
-57 -121 118 c-67 65 -201 194 -299 288 -97 93 -176 172 -175 176 2 4 25 23
52 44 l49 37 86 -86 c229 -227 374 -366 378 -362 2 2 -7 22 -21 45 -14 22 -26
43 -26 45 0 2 -24 46 -53 98 -30 51 -71 125 -92 163 -20 39 -55 102 -76 142
l-39 71 42 36 c23 20 45 36 48 36 4 0 32 -47 63 -105z m-2548 -125 c3 -5 -1
-10 -9 -10 -8 0 -18 5 -21 10 -3 6 1 10 9 10 8 0 18 -4 21 -10z m-655 -10 c0
-13 -20 -13 -40 0 -12 8 -9 10 13 10 15 0 27 -4 27 -10z m-74 -25 c69 -33 116
-91 121 -153 4 -40 -1 -59 -34 -122 -21 -41 -43 -76 -49 -77 -5 -2 -31 11 -57
27 l-46 31 29 47 c45 74 44 106 -4 129 -31 15 -37 15 -58 1 -13 -9 -40 -42
-59 -74 -20 -33 -77 -126 -128 -208 -50 -82 -94 -159 -97 -172 -4 -16 1 -30
20 -48 47 -48 78 -33 141 69 l47 75 -23 19 -23 19 19 37 c33 61 37 62 117 14
40 -23 74 -44 76 -45 2 -1 -14 -31 -36 -66 -21 -34 -53 -88 -72 -118 -66 -110
-119 -150 -195 -150 -82 0 -174 65 -196 140 -20 65 -1 113 133 335 137 225
162 260 215 292 49 30 93 29 159 -2z m2334 -30 c-7 -8 -16 -15 -21 -15 -5 0
-9 7 -9 15 0 9 9 15 21 15 18 0 19 -2 9 -15z m2030 -40 c0 -8 -7 -15 -15 -15
-8 0 -15 -9 -15 -21 0 -16 -5 -20 -27 -17 -36 4 -41 26 -8 34 17 4 24 11 21
20 -4 10 2 14 19 14 16 0 25 -6 25 -15z m-3696 -31 c22 -8 10 -24 -19 -24 -25
0 -39 12 -28 24 8 8 27 8 47 0z m2061 -40 c19 -9 45 -30 58 -47 23 -31 177
-347 223 -459 53 -127 19 -217 -99 -267 -61 -26 -117 -27 -165 -2 -46 24 -70
56 -120 162 -21 46 -70 149 -107 229 -97 205 -99 278 -12 344 73 56 157 71
222 40z m1395 -56 c0 -14 -30 -48 -42 -48 -5 0 -2 14 7 30 16 30 35 40 35 18z
m-1740 -18 c0 -5 -4 -10 -10 -10 -5 0 -10 5 -10 10 0 6 5 10 10 10 6 0 10 -4
10 -10z m1905 0 c3 -5 -1 -10 -10 -10 -9 0 -13 5 -10 10 3 6 8 10 10 10 2 0 7
-4 10 -10z m-3755 -49 c66 -25 75 -31 72 -51 -1 -13 -18 -107 -37 -209 -19
-102 -51 -276 -71 -386 -20 -110 -38 -201 -39 -203 -2 -2 -20 4 -40 12 -46 20
-42 20 -48 -5 -3 -13 -10 -18 -17 -14 -7 4 -10 16 -7 26 3 10 2 21 -3 24 -4 2
-4 24 1 47 4 25 4 44 -2 46 -5 2 -9 8 -9 13 0 6 4 8 9 5 10 -7 24 22 16 34 -8
13 -133 52 -145 45 -6 -4 -24 -33 -40 -66 l-30 -59 -53 21 c-28 11 -53 22 -54
23 -2 1 11 28 28 60 23 43 28 61 20 69 -16 16 -14 47 3 47 8 0 16 -7 18 -15 2
-10 17 7 37 41 30 50 32 59 20 80 -16 30 -4 44 16 18 8 -10 15 -14 15 -9 0 6
20 46 45 89 25 44 45 81 45 83 0 2 -15 3 -33 3 -23 0 -41 8 -57 25 l-23 24 72
3 c67 3 74 5 89 30 15 26 15 28 -3 41 -18 14 -18 15 1 24 10 6 24 9 29 7 6 -3
24 21 39 51 17 32 36 55 45 54 9 0 50 -13 91 -28z m-1182 -43 c3 -15 -4 -18
-37 -18 -29 0 -41 4 -41 14 0 30 73 33 78 4z m1872 -28 c0 -5 -7 -10 -15 -10
-8 0 -15 5 -15 10 0 6 7 10 15 10 8 0 15 -4 15 -10z m725 -86 c4 -31 4 -58 2
-61 -3 -2 -52 -11 -108 -19 -57 -8 -105 -16 -107 -18 -2 -2 4 -52 12 -110 9
-59 16 -108 16 -109 0 -2 26 0 58 4 120 15 118 16 125 -43 4 -34 3 -55 -5 -59
-6 -4 -44 -10 -84 -14 -86 -8 -81 3 -62 -151 13 -107 3 -101 123 -83 50 8 72
15 63 20 -10 7 -9 9 5 9 9 0 17 -5 17 -10 0 -6 5 -9 12 -8 13 3 26 -33 27 -79
1 -26 -4 -34 -21 -37 -39 -8 -322 -45 -325 -42 -1 1 -10 63 -20 137 -9 74 -21
137 -26 140 -5 4 -7 12 -3 18 4 6 -7 123 -25 261 -18 138 -29 253 -26 256 3 3
79 16 169 29 90 12 166 23 169 24 4 0 10 -24 14 -55z m-914 30 c14 -4 18 -27
23 -137 9 -177 26 -431 29 -434 2 -1 25 84 52 190 27 106 59 228 71 272 l21
80 88 -2 c48 -1 89 -4 91 -5 1 -2 -8 -109 -21 -238 -14 -129 -25 -236 -25
-237 0 -8 43 -1 60 9 16 10 27 9 65 -10 25 -12 45 -29 45 -37 0 -20 -4 -19
-49 10 -31 21 -45 25 -79 19 -49 -8 -47 -2 -63 -191 l-13 -143 -32 0 c-17 0
-46 3 -63 6 -25 5 -30 11 -26 28 2 11 7 49 10 84 l6 62 -33 0 c-33 0 -34 0
-54 -77 l-20 -78 -57 1 c-32 1 -60 3 -62 5 -2 3 -12 128 -22 279 -20 309 -19
310 -56 -45 l-23 -220 -51 2 c-46 1 -50 0 -46 -18 4 -13 0 -19 -11 -19 -21 0
-33 29 -17 39 7 5 14 28 16 52 2 24 13 125 24 224 11 99 27 257 36 350 9 94
18 176 21 184 3 10 20 12 77 6 39 -3 79 -8 88 -11z m3009 -25 c0 -5 -7 -9 -15
-9 -15 0 -20 12 -9 23 8 8 24 -1 24 -14z m-4936 -50 c15 -13 -41 -22 -99 -14
-51 6 -64 13 -50 27 9 8 138 -3 149 -13z m4928 -21 c-9 -9 -12 -7 -12 12 0 19
3 21 12 12 9 -9 9 -15 0 -24z m-2482 -8 c0 -5 -4 -10 -10 -10 -5 0 -10 5 -10
10 0 6 5 10 10 10 6 0 10 -4 10 -10z m-406 -86 c23 -9 20 -24 -4 -24 -11 0
-20 7 -20 15 0 17 2 18 24 9z m1926 -214 c0 -5 -7 -10 -15 -10 -8 0 -15 5 -15
10 0 6 7 10 15 10 8 0 15 -4 15 -10z m-2430 -70 c0 -5 -7 -10 -15 -10 -8 0
-15 5 -15 10 0 6 7 10 15 10 8 0 15 -4 15 -10z m145 -80 c3 -5 -3 -10 -15 -10
-12 0 -18 5 -15 10 3 6 10 10 15 10 5 0 12 -4 15 -10z m-115 -50 c0 -5 -7 -10
-15 -10 -8 0 -15 5 -15 10 0 6 7 10 15 10 8 0 15 -4 15 -10z m1477 -52 c7 -1
10 -4 9 -7 -7 -10 -106 0 -106 11 0 7 15 8 43 4 23 -4 47 -8 54 -8z m-1386
-14 c11 -14 9 -15 -16 -12 -16 1 -30 9 -33 16 -6 18 33 15 49 -4z m-791 -14
c0 -5 -4 -10 -10 -10 -5 0 -10 5 -10 10 0 6 5 10 10 10 6 0 10 -4 10 -10z
m387 -82 c-3 -8 -6 -5 -6 6 -1 11 2 17 5 13 3 -3 4 -12 1 -19z m2343 -37 c0
-6 -4 -13 -10 -16 -5 -3 -10 1 -10 9 0 9 5 16 10 16 6 0 10 -4 10 -9z m-25
-31 c3 -5 -3 -10 -15 -10 -12 0 -18 5 -15 10 3 6 10 10 15 10 5 0 12 -4 15
-10z m-1837 -162 c41 3 44 -22 4 -36 -52 -18 -106 27 -104 88 1 52 13 51 41
-2 25 -48 30 -53 59 -50z m112 -4 c0 -9 -7 -14 -17 -12 -25 5 -28 28 -4 28 12
0 21 -6 21 -16z m1245 -4 c-3 -5 -10 -10 -16 -10 -5 0 -9 5 -9 10 0 6 7 10 16
10 8 0 12 -4 9 -10z m-1985 -10 c0 -5 -4 -10 -9 -10 -6 0 -13 5 -16 10 -3 6 1
10 9 10 9 0 16 -4 16 -10z m738 -43 c5 -24 -15 -21 -21 4 -3 13 -1 19 6 16 7
-2 13 -11 15 -20z m917 -73 c-38 -17 -58 -17 -73 -2 -20 20 -14 23 45 19 58
-4 58 -4 28 -17z"/>
<path d="M8984 4578 c-12 -5 -28 -25 -37 -44 l-16 -33 72 -42 c161 -93 145
-89 171 -35 24 51 9 78 -66 119 -77 43 -97 48 -124 35z"/>
<path d="M7715 3408 c-46 -26 -46 -55 1 -156 190 -405 197 -416 255 -392 38
16 47 52 27 105 -26 68 -187 398 -208 428 -22 29 -43 33 -75 15z"/>
<path d="M5548 3223 c-8 -16 -49 -94 -91 -174 -42 -80 -77 -148 -77 -152 0 -8
102 -37 112 -31 4 3 7 15 7 27 0 12 9 65 21 117 24 108 48 240 44 240 -1 0 -9
-12 -16 -27z m-75 -259 c9 -10 -4 -34 -19 -34 -8 0 -14 9 -14 20 0 19 19 27
33 14z"/>
<path d="M6345 2908 c-10 -40 -28 -111 -41 -157 -31 -108 -31 -121 1 -121 14
0 25 1 25 3 8 46 38 342 36 345 -2 1 -11 -30 -21 -70z"/>
<path d="M8130 4584 c-63 -17 -569 -152 -662 -176 -53 -14 -75 -24 -72 -33 8
-20 -18 -31 -30 -13 -8 14 -19 13 -100 -9 -50 -13 -181 -49 -291 -78 -327 -87
-1057 -283 -1100 -295 -71 -20 -72 -21 -35 -36 138 -59 417 -112 634 -121
l149 -6 -7 28 c-6 25 -5 27 8 16 9 -8 16 -20 16 -27 0 -21 44 -17 66 7 17 19
19 19 30 4 11 -15 20 -15 121 -1 477 71 929 310 1248 661 43 47 76 87 74 89
-2 1 -24 -3 -49 -10z m-1410 -664 c0 -11 -4 -20 -9 -20 -11 0 -22 26 -14 34
12 12 23 5 23 -14z m206 -25 c19 -14 19 -14 -2 -15 -11 0 -29 7 -40 15 -19 14
-19 14 2 15 11 0 29 -7 40 -15z"/>
</g>
</svg>
