<?xml version="1.0" standalone="no"?>
<!DOCTYPE svg PUBLIC "-//W3C//DTD SVG 20010904//EN"
 "http://www.w3.org/TR/2001/REC-SVG-20010904/DTD/svg10.dtd">
<svg version="1.0" xmlns="http://www.w3.org/2000/svg"
 width="260.000000pt" height="185.000000pt" viewBox="0 0 260.000000 185.000000"
 preserveAspectRatio="xMidYMid meet">

<g transform="translate(0.000000,185.000000) scale(0.100000,-0.100000)"
fill="#000000" stroke="none">
<path d="M1154 1815 c-138 -30 -258 -94 -370 -199 -122 -113 -223 -284 -264
-448 -8 -31 -20 -50 -37 -59 -74 -39 -163 -181 -163 -259 0 -58 79 -88 144
-55 15 8 29 15 31 15 1 0 5 -26 9 -58 4 -31 22 -102 42 -157 19 -55 41 -133
49 -174 17 -89 52 -165 99 -210 33 -32 50 -36 119 -29 7 1 35 -15 63 -35 203
-146 487 -178 714 -81 36 15 83 28 105 28 36 1 40 4 43 28 2 15 14 34 29 43
24 16 27 16 52 -4 46 -37 69 -45 86 -31 23 19 18 36 -21 69 l-37 30 41 47
c104 117 191 291 217 434 12 67 15 71 35 60 32 -17 85 -11 115 12 24 19 27 26
22 64 -7 64 -45 133 -108 197 -37 37 -60 69 -64 90 -54 270 -254 528 -492 633
-134 60 -320 79 -459 49z m-174 -170 c0 -9 -9 -15 -24 -15 -13 0 -40 -11 -61
-25 -39 -27 -57 -26 -39 2 25 40 124 70 124 38z m708 -9 c22 -21 8 -32 -23
-18 -14 7 -41 12 -60 12 -34 0 -43 8 -27 24 12 13 93 0 110 -18z m-392 -302
c26 -11 54 -14 86 -11 29 4 48 2 48 -4 0 -12 -44 -29 -75 -29 -16 0 -29 -11
-44 -35 -15 -25 -27 -35 -46 -35 -34 0 -55 42 -36 72 20 33 -1 45 -44 25 -39
-19 -57 -6 -23 17 29 21 85 20 134 0z m429 -134 c0 -11 -12 -15 -45 -15 l-45
0 -3 -132 -3 -132 28 -3 c34 -4 38 -32 5 -36 -19 -3 -23 -9 -20 -30 3 -24 7
-27 36 -24 28 3 33 0 30 -15 -2 -14 -12 -18 -43 -18 -61 0 -68 23 -68 231 0
94 4 177 8 183 11 18 120 10 120 -9z m-691 -6 c30 -30 15 -45 -25 -23 -96 51
-135 -195 -55 -348 37 -72 65 -29 73 115 l6 92 -32 0 c-49 0 -33 24 19 28 l43
3 -5 -118 c-6 -159 -32 -209 -94 -181 -49 22 -88 141 -87 263 0 77 18 130 54
164 27 25 81 28 103 5z m146 -4 c12 -22 70 -357 70 -403 0 -48 -24 -25 -36 34
l-10 54 -39 0 c-40 0 -40 0 -48 -47 -9 -50 -37 -69 -37 -25 0 39 29 271 41
327 16 79 38 100 59 60z m175 -89 c73 -141 64 -140 125 -23 77 148 86 143 92
-50 3 -84 4 -155 2 -157 -2 -2 -10 -1 -19 2 -12 5 -15 27 -15 119 -1 129 -3
129 -66 5 -25 -49 -40 -67 -52 -65 -10 2 -36 40 -62 88 l-45 85 -5 -155 c-5
-149 -11 -187 -30 -175 -10 6 -7 396 4 413 12 20 23 6 71 -87z"/>
<path d="M1262 1298 c-14 -14 -16 -44 -3 -53 11 -6 41 32 41 52 0 16 -22 17
-38 1z"/>
<path d="M1141 1051 c-16 -103 -15 -141 7 -140 47 2 49 7 33 112 -8 53 -17 97
-21 97 -4 0 -12 -31 -19 -69z"/>
</g>
</svg>
